<svg width="20" height="20" viewBox="0 0 20 20" fill="none" xmlns="http://www.w3.org/2000/svg">
<rect width="20" height="20" rx="5" fill="#2FB2D0"/>
<g clip-path="url(#clip0_70_9802)">
<path d="M9.99998 12.3632C11.3052 12.3632 12.3632 11.3052 12.3632 9.99998C12.3632 8.69479 11.3052 7.63672 9.99998 7.63672C8.69479 7.63672 7.63672 8.69479 7.63672 9.99998C7.63672 11.3052 8.69479 12.3632 9.99998 12.3632Z" fill="white"/>
<path d="M14.9021 11.731C14.4089 11.291 14.1261 10.6601 14.1261 10C14.1261 9.33985 14.4089 8.709 14.9021 8.26896C14.9658 8.21213 15 8.13205 15 8.05041C15 8.01271 14.9927 7.97463 14.9777 7.9383C14.93 7.82307 14.8146 7.7508 14.6904 7.75783C14.0304 7.79533 13.3843 7.54924 12.9177 7.08225C12.4508 6.61566 12.2047 5.96957 12.2422 5.30962C12.2492 5.1852 12.1769 5.06997 12.0617 5.02231C11.9467 4.97466 11.814 5.00493 11.731 5.0979C11.291 5.59106 10.6601 5.87387 10 5.87387C9.33985 5.87387 8.709 5.59106 8.26896 5.0979C8.18595 5.00493 8.05334 4.97466 7.9383 5.02231C7.82307 5.06997 7.7508 5.1852 7.75783 5.30962C7.79533 5.96957 7.54924 6.61566 7.08225 7.08225C6.61566 7.54924 5.96957 7.79533 5.30962 7.75783C5.1854 7.7508 5.06997 7.82307 5.02231 7.9383C4.97466 8.05334 5.00493 8.18595 5.0979 8.26896C5.59106 8.709 5.87387 9.33985 5.87387 10C5.87387 10.6601 5.59106 11.291 5.0979 11.731C5.00493 11.814 4.97466 11.9467 5.02231 12.0617C5.06997 12.1769 5.18559 12.2492 5.30962 12.2422C5.96957 12.2047 6.61566 12.4508 7.08225 12.9177C7.54924 13.3843 7.79533 14.0304 7.75783 14.6904C7.7508 14.8148 7.82307 14.93 7.9383 14.9777C8.05334 15.0253 8.18595 14.9951 8.26896 14.9021C8.709 14.4089 9.33985 14.1261 10 14.1261C10.6601 14.1261 11.291 14.4089 11.731 14.9021C11.8143 14.9956 11.948 15.025 12.0617 14.9777C12.1769 14.93 12.2492 14.8148 12.2422 14.6904C12.2047 14.0304 12.4508 13.3843 12.9177 12.9177C13.3843 12.4508 14.0304 12.2045 14.6904 12.2422C14.8146 12.2494 14.93 12.1767 14.9777 12.0617C14.9927 12.0254 15 11.9873 15 11.9496C15 11.8679 14.9658 11.7879 14.9021 11.731ZM10 12.9492C8.37384 12.9492 7.05081 11.6262 7.05081 10C7.05081 8.37384 8.37384 7.05081 10 7.05081C11.6262 7.05081 12.9492 8.37384 12.9492 10C12.9492 11.6262 11.6262 12.9492 10 12.9492Z" fill="white"/>
</g>
<defs>
<clipPath id="clip0_70_9802">
<rect width="10" height="10" fill="white" transform="translate(5 5)"/>
</clipPath>
</defs>
</svg>
