<svg width="20" height="20" viewBox="0 0 20 20" fill="none" xmlns="http://www.w3.org/2000/svg">
<rect width="20" height="20" rx="5" fill="#8F8F93"/>
<g clip-path="url(#clip0_70_2215)">
<path fill-rule="evenodd" clip-rule="evenodd" d="M5.97998 7.06C5.97998 5.92229 6.90227 5 8.03998 5H11.98C13.1177 5 14.04 5.92229 14.04 7.06V12.94C14.04 14.0777 13.1177 15 11.98 15H8.03998C6.90227 15 5.97998 14.0777 5.97998 12.94V7.06ZM9.13998 13.46C9.13998 13.1839 9.36384 12.96 9.63998 12.96H10.38C10.6561 12.96 10.88 13.1839 10.88 13.46C10.88 13.7361 10.6561 13.96 10.38 13.96H9.63998C9.36384 13.96 9.13998 13.7361 9.13998 13.46ZM9.99998 6.6C10.1988 6.6 10.36 6.43882 10.36 6.24C10.36 6.04118 10.1988 5.88 9.99998 5.88C9.80116 5.88 9.63998 6.04118 9.63998 6.24C9.63998 6.43882 9.80116 6.6 9.99998 6.6Z" fill="white"/>
</g>
<defs>
<clipPath id="clip0_70_2215">
<rect width="10" height="10" fill="white" transform="translate(5 5)"/>
</clipPath>
</defs>
</svg>
