<svg width="14" height="14" viewBox="0 0 14 14" fill="none" xmlns="http://www.w3.org/2000/svg">
  <path d="M5.24999 8.7501L8.74999 5.2501M6.41666 3.5001L6.68674 3.18743C7.23379 2.64045 7.97573 2.3332 8.74932 2.33325C9.52292 2.33331 10.2648 2.64067 10.8118 3.18772C11.3588 3.73478 11.666 4.47671 11.666 5.2503C11.6659 6.0239 11.3585 6.76579 10.8115 7.31276L10.5 7.58343M7.58334 10.5001L7.35175 10.8116C6.79831 11.3589 6.05138 11.6658 5.27304 11.6658C4.49471 11.6658 3.74777 11.3589 3.19433 10.8116C2.92154 10.5419 2.70497 10.2207 2.55717 9.86668C2.40936 9.51267 2.33325 9.13285 2.33325 8.74922C2.33325 8.36559 2.40936 7.98578 2.55717 7.63176C2.70497 7.27775 2.92154 6.95658 3.19433 6.68685L3.5 6.41676" stroke="#2D7955" stroke-width="1.16667" stroke-linecap="round" stroke-linejoin="round" />
</svg>