<svg width="20" height="20" viewBox="0 0 20 20" fill="none" xmlns="http://www.w3.org/2000/svg">
<rect width="20" height="20" rx="5" fill="#2FD056"/>
<g clip-path="url(#clip0_70_2207)">
<path d="M13.1164 8.66714V8.11643C13.1164 7.2899 12.7881 6.49722 12.2036 5.91278C11.6192 5.32834 10.8265 5 9.99996 5C9.17343 5 8.38076 5.32834 7.79631 5.91278C7.21187 6.49722 6.88353 7.2899 6.88353 8.11643V8.66714C6.65968 8.74465 6.46497 8.8889 6.32563 9.08048C6.18629 9.27205 6.10903 9.50173 6.10425 9.73857V13.8293C6.11125 13.9919 6.15057 14.1515 6.21991 14.2987C6.28925 14.446 6.38721 14.5779 6.50809 14.6869C6.62897 14.7959 6.77034 14.8797 6.92396 14.9334C7.07758 14.9872 7.24036 15.0098 7.40282 15H12.5971C12.7594 15.0098 12.922 14.9873 13.0755 14.9336C13.229 14.88 13.3702 14.7964 13.4911 14.6876C13.6119 14.5789 13.71 14.4472 13.7794 14.3002C13.8489 14.1532 13.8884 13.9938 13.8957 13.8314V9.74071C13.8913 9.50351 13.8143 9.27335 13.6749 9.08135C13.5355 8.88936 13.3406 8.74477 13.1164 8.66714ZM9.99996 6.55857C10.4131 6.55895 10.8092 6.72318 11.1014 7.01523C11.3936 7.30728 11.558 7.70331 11.5585 8.11643V8.57143H8.44139V8.11643C8.44196 7.70331 8.60637 7.30728 8.89856 7.01523C9.19074 6.72318 9.58684 6.55895 9.99996 6.55857Z" fill="white"/>
</g>
<defs>
<clipPath id="clip0_70_2207">
<rect width="10" height="10" fill="white" transform="translate(5 5)"/>
</clipPath>
</defs>
</svg>
