<svg width="20" height="20" viewBox="0 0 20 20" fill="none" xmlns="http://www.w3.org/2000/svg">
<rect width="20" height="20" rx="5" fill="#E23231"/>
<g clip-path="url(#clip0_70_2199)">
<path d="M13.9454 12.594L13.3834 11.892C13.1359 11.5825 12.9999 11.194 12.9999 10.7985V9C12.9999 7.3455 11.6544 6 9.9999 6C8.3454 6 6.9999 7.3455 6.9999 9V10.7985C6.9999 11.1945 6.8639 11.5825 6.6164 11.892L6.0544 12.594C5.9944 12.669 5.9829 12.772 6.0244 12.8585C6.0664 12.945 6.1539 13 6.2499 13H8.4269C8.7089 13.6035 9.3169 14 9.9999 14C10.6829 14 11.2914 13.6035 11.5729 13H13.7499C13.8459 13 13.9334 12.945 13.9754 12.8585C14.0169 12.7715 14.0054 12.669 13.9454 12.594Z" fill="white"/>
</g>
<defs>
<clipPath id="clip0_70_2199">
<rect width="8" height="8" fill="white" transform="translate(6 6)"/>
</clipPath>
</defs>
</svg>
