<svg width="20" height="20" fill="none" xmlns="http://www.w3.org/2000/svg"><rect width="20" height="20" rx="5" fill="#E47827"/><g clip-path="url(#prefix__clip0_70_2170)"><path d="M13.449 8.802a77.4 77.4 0 00-1.904.028L8.863 5H7.449l1.807 3.92a124.5 124.5 0 00-2.24.134L5.892 7.077h-.755l.723 2.061c-.371.013-.67.393-.67.862s.299.848.67.861l-.723 2.062h.755l1.125-1.978c.746.051 1.493.097 2.24.135L7.448 15h1.414l2.681-3.83c.635.018 1.27.027 1.905.029.769-.007 1.414-.559 1.414-1.196V10c0-.64-.643-1.193-1.414-1.198z" fill="#fff"/></g><defs><clipPath id="prefix__clip0_70_2170"><path fill="#fff" transform="translate(5 5)" d="M0 0h10v10H0z"/></clipPath></defs></svg>