<svg width="20" height="20" fill="none" xmlns="http://www.w3.org/2000/svg"><rect width="20" height="20" rx="5" fill="#2ED15B"/><path d="M9.625 9.02h.75v.938h-.75v-.937zM9 9.938V9h-.75a.09.09 0 00-.083.083v.854H9zM9.625 11.813h.75v.833h-.75v-.834zM11 9.938h.813v-.855A.09.09 0 0011.729 9h-.75v.938H11zM8.167 10.563h3.646v.624H8.167v-.624z" fill="#fff"/><path d="M13.625 6.25l-1.23-.958a.914.914 0 00-.562-.188H6.938c-.5 0-.917.417-.917.917V14c0 .5.417.917.917.917h6.145c.5 0 .917-.417.917-.917V6.98a1.006 1.006 0 00-.375-.73zm-1.167 6.333a.702.702 0 01-.708.709h-3.5a.702.702 0 01-.708-.709v-3.5c0-.396.312-.708.708-.708h3.5c.396 0 .708.312.708.708v3.5z" fill="#fff"/><path d="M9 11.813h-.813v.75a.09.09 0 00.084.083h.75v-.834H9zM11 11.813v.833h.75a.09.09 0 00.083-.084v-.75H11z" fill="#fff"/></svg>