<svg width="20" height="20" viewBox="0 0 20 20" fill="none" xmlns="http://www.w3.org/2000/svg">
<rect width="20" height="20" rx="5" fill="#FC2D57"/>
<g clip-path="url(#clip0_70_2187)">
<path d="M11.3248 5.03541C11.2496 5.00241 11.1664 4.99218 11.0855 5.00597C11.0046 5.01975 10.9294 5.05697 10.8694 5.113L7.36293 8.36144H6.12663C5.83467 8.36188 5.55479 8.47806 5.34834 8.68451C5.14189 8.89096 5.02571 9.17084 5.02527 9.4628V10.5372C5.02571 10.8291 5.14189 11.109 5.34834 11.3155C5.55479 11.5219 5.83467 11.6381 6.12663 11.6385H7.36293L10.8694 14.887C10.9295 14.9427 11.0046 14.9798 11.0855 14.9935C11.1663 15.0073 11.2494 14.9971 11.3246 14.9644C11.3998 14.9316 11.4637 14.8777 11.5087 14.8091C11.5537 14.7405 11.5777 14.6603 11.5778 14.5783V5.42165C11.5776 5.33969 11.5535 5.25956 11.5086 5.191C11.4637 5.12244 11.3998 5.06839 11.3248 5.03541Z" fill="white"/>
<path d="M13.5359 12.8832C13.4524 12.8834 13.3708 12.8587 13.3013 12.8124C13.2318 12.7661 13.1776 12.7002 13.1457 12.623C13.1137 12.5459 13.1053 12.461 13.1217 12.3791C13.138 12.2972 13.1783 12.222 13.2374 12.1631C13.8102 11.5889 14.1318 10.811 14.1318 9.99996C14.1318 9.18895 13.8102 8.41104 13.2374 7.83686C13.1605 7.75744 13.1178 7.65099 13.1186 7.54043C13.1194 7.42986 13.1636 7.32404 13.2417 7.24575C13.3198 7.16746 13.4255 7.12296 13.536 7.12185C13.6466 7.12073 13.7531 7.16309 13.8328 7.23979C14.5641 7.97219 14.9749 8.96492 14.9749 9.99996C14.9749 11.035 14.5641 12.0277 13.8328 12.7601C13.7939 12.7992 13.7476 12.8302 13.6967 12.8513C13.6457 12.8725 13.5911 12.8833 13.5359 12.8832Z" fill="white"/>
<path d="M12.6151 11.2405C12.5596 11.2407 12.5047 11.2299 12.4535 11.2088C12.4022 11.1877 12.3557 11.1566 12.3165 11.1174C12.238 11.0379 12.194 10.9306 12.194 10.8189C12.194 10.7071 12.238 10.5999 12.3165 10.5203C12.4548 10.3818 12.5325 10.1941 12.5325 9.99832C12.5325 9.80257 12.4548 9.61482 12.3165 9.47631C12.2773 9.43689 12.2463 9.39012 12.2251 9.3387C12.204 9.28727 12.1932 9.23218 12.1934 9.17658C12.1935 9.12099 12.2046 9.06596 12.226 9.01465C12.2475 8.96335 12.2788 8.91676 12.3182 8.87756C12.3576 8.83835 12.4044 8.8073 12.4558 8.78617C12.5072 8.76504 12.5623 8.75424 12.6179 8.7544C12.6735 8.75455 12.7286 8.76566 12.7799 8.78708C12.8312 8.8085 12.8778 8.83982 12.917 8.87925C13.2135 9.17619 13.38 9.57868 13.38 9.99832C13.38 10.418 13.2135 10.8205 12.917 11.1174C12.8774 11.157 12.8303 11.1883 12.7784 11.2095C12.7266 11.2306 12.671 11.2412 12.6151 11.2405Z" fill="white"/>
</g>
<defs>
<clipPath id="clip0_70_2187">
<rect width="10" height="10" fill="white" transform="translate(5 5)"/>
</clipPath>
</defs>
</svg>
