<svg width="20" height="20" fill="none" xmlns="http://www.w3.org/2000/svg"><rect width="20" height="20" rx="5" fill="#0379FF"/><g clip-path="url(#prefix__clip0_70_2180)"><path d="M12.779 9.494l2.87 2.294v1.153a2.71 2.71 0 01-2.708 2.707H7.059a2.711 2.711 0 01-2.693-2.428l3.275-2.697 1.414 1.165-.877.748a.375.375 0 00.488.57l4.113-3.512zm2.87-2.435v3.77l-2.643-2.114a.375.375 0 00-.478.008l-2.894 2.47-1.755-1.445a.375.375 0 00-.477 0l-3.05 2.512V7.06a2.71 2.71 0 012.707-2.707h5.882a2.71 2.71 0 012.707 2.707zm-5.907.145a1.366 1.366 0 00-2.728 0c0 .752.611 1.364 1.363 1.364.753 0 1.365-.612 1.365-1.364z" fill="#fff"/></g><defs><clipPath id="prefix__clip0_70_2180"><path fill="#fff" transform="translate(4 4)" d="M0 0h12v12H0z"/></clipPath></defs></svg>