<svg width="25" height="25" viewBox="0 0 25 25" fill="none" xmlns="http://www.w3.org/2000/svg">
<g clip-path="url(#clip0_70_7036)">
<path d="M19.1667 0H5.83333C2.61167 0 0 2.61167 0 5.83333V19.1667C0 22.3883 2.61167 25 5.83333 25H19.1667C22.3883 25 25 22.3883 25 19.1667V5.83333C25 2.61167 22.3883 0 19.1667 0Z" fill="url(#paint0_linear_70_7036)"/>
<path fill-rule="evenodd" clip-rule="evenodd" d="M3.54175 6.6665H6.45841V20.4165H4.37508C4.15407 20.4165 3.94211 20.3287 3.78583 20.1724C3.62955 20.0161 3.54175 19.8042 3.54175 19.5832V6.6665Z" fill="white"/>
<g filter="url(#filter0_d_70_7036)">
<path d="M5.20833 5H21.0417V19.375C21.0417 19.6513 20.9319 19.9162 20.7366 20.1116C20.5412 20.3069 20.2763 20.4167 20 20.4167H5.20833V5ZM4.375 20.4167C4.79167 20.4167 5.20833 20 5.20833 19.5833V20.4167H4.375Z" fill="black"/>
</g>
<path d="M5.20833 5H21.0417V19.375C21.0417 19.6513 20.9319 19.9162 20.7366 20.1116C20.5412 20.3069 20.2763 20.4167 20 20.4167H5.20833V5ZM4.375 20.4167C4.79167 20.4167 5.20833 20 5.20833 19.5833V20.4167H4.375Z" fill="white"/>
<path d="M9.0841 8.5791H8.58739L8.20252 7.07252L7.82094 8.5791H7.32423L6.69594 6.38502H7.21897L7.60384 7.97055L8.0216 6.38502H8.38673L8.8012 7.97055L9.18278 6.38502H9.7091L9.0841 8.5791ZM11.482 8.5791H9.92939V6.38502H11.482V6.79621H10.3965V7.26002H11.459V7.67121H10.3965V8.16792H11.482V8.5791ZM13.8932 8.5791H13.3603L13.2255 8.20739H12.2847L12.1465 8.5791H11.6136L12.4623 6.38502H13.0478L13.8932 8.5791ZM13.0972 7.79621L12.7551 6.85213L12.413 7.79621H13.0972ZM15.6879 8.5791H14.0169V8.20081L15.0531 6.79621H14.0169V6.38502H15.6649V6.76002L14.6287 8.16792H15.6879V8.5791ZM17.5952 8.5791H16.0425V6.38502H17.5952V6.79621H16.5097V7.26002H17.5722V7.67121H16.5097V8.16792H17.5952V8.5791ZM19.3551 8.5791H17.9603V6.38502H18.4274V8.16792H19.3551V8.5791Z" fill="#FE5053"/>
<path fill-rule="evenodd" clip-rule="evenodd" d="M7.29167 14.5835H21.0417V15.4168H7.29167C7.18116 15.4168 7.07518 15.3729 6.99704 15.2948C6.9189 15.2167 6.875 15.1107 6.875 15.0002C6.875 14.8897 6.9189 14.7837 6.99704 14.7055C7.07518 14.6274 7.18116 14.5835 7.29167 14.5835ZM7.29167 16.2502H21.0417V17.0835H7.29167C7.18116 17.0835 7.07518 17.0396 6.99704 16.9615C6.9189 16.8833 6.875 16.7773 6.875 16.6668C6.875 16.5563 6.9189 16.4503 6.99704 16.3722C7.07518 16.2941 7.18116 16.2502 7.29167 16.2502ZM7.29167 17.9168H21.0417V18.7502H7.29167C7.18116 18.7502 7.07518 18.7063 6.99704 18.6281C6.9189 18.55 6.875 18.444 6.875 18.3335C6.875 18.223 6.9189 18.117 6.99704 18.0389C7.07518 17.9607 7.18116 17.9168 7.29167 17.9168Z" fill="#C8C7CC"/>
</g>
<defs>
<filter id="filter0_d_70_7036" x="2.70833" y="4.16667" width="18.3334" height="17.0832" filterUnits="userSpaceOnUse" color-interpolation-filters="sRGB">
<feFlood flood-opacity="0" result="BackgroundImageFix"/>
<feColorMatrix in="SourceAlpha" type="matrix" values="0 0 0 0 0 0 0 0 0 0 0 0 0 0 0 0 0 0 127 0" result="hardAlpha"/>
<feOffset dx="-0.833333"/>
<feGaussianBlur stdDeviation="0.416667"/>
<feColorMatrix type="matrix" values="0 0 0 0 0 0 0 0 0 0 0 0 0 0 0 0 0 0 0.2 0"/>
<feBlend mode="normal" in2="BackgroundImageFix" result="effect1_dropShadow_70_7036"/>
<feBlend mode="normal" in="SourceGraphic" in2="effect1_dropShadow_70_7036" result="shape"/>
</filter>
<linearGradient id="paint0_linear_70_7036" x1="12.5" y1="0" x2="12.5" y2="25" gradientUnits="userSpaceOnUse">
<stop stop-color="#FF6F71"/>
<stop offset="1" stop-color="#FE5053"/>
</linearGradient>
<clipPath id="clip0_70_7036">
<rect width="25" height="25" fill="white"/>
</clipPath>
</defs>
</svg>
