<svg width="38" height="38" fill="none" xmlns="http://www.w3.org/2000/svg"><g clip-path="url(#prefix__clip0_70_871)"><path fill-rule="evenodd" clip-rule="evenodd" d="M29.767 38H8.233A8.216 8.216 0 010 29.767V8.233A8.217 8.217 0 018.233 0h21.534A8.217 8.217 0 0138 8.233v21.534A8.216 8.216 0 0129.767 38z" fill="#fff"/><path d="M13.414 8.118c.048.409.45.672 1.03.672.536 0 .915-.27.915-.652 0-.324-.246-.512-.85-.645l-.641-.14c-.897-.19-1.337-.651-1.337-1.398 0-.918.747-1.525 1.883-1.525 1.085 0 1.852.604 1.883 1.473h-.969c-.048-.402-.41-.665-.907-.665-.515 0-.857.25-.857.635 0 .31.236.491.812.617l.594.126c.99.212 1.416.638 1.416 1.4 0 .982-.761 1.589-1.996 1.589-1.174 0-1.934-.577-1.972-1.487h.996zm6.733.167h-1.73l-.379 1.194h-1.033l1.709-4.923h1.211l1.71 4.923h-1.117l-.371-1.194zm-1.508-.771h1.29l-.611-1.959h-.062l-.617 1.959zm4.498 1.965V5.405H21.66v-.849h3.984v.85h-1.477v4.073h-1.03z" fill="#FF3B30"/><path d="M11.752 13.416c3.108 0 5.315 2.136 5.315 4.776 0 1.871-.851 3.287-3.935 6.466l-4.63 4.835v.049h9.01v1.463H6.222v-1.152l6.118-6.43c2.484-2.592 3.096-3.624 3.096-5.147 0-1.908-1.5-3.42-3.684-3.42-2.291 0-4.007 1.572-4.03 3.696H6.137c.024-2.964 2.411-5.136 5.614-5.136zm7.883 8.927c0-5.435 2.364-8.927 6.275-8.927 3.924 0 6.263 3.48 6.263 8.915 0 5.47-2.328 8.95-6.263 8.95s-6.274-3.467-6.274-8.938zm10.895 0c0-4.547-1.716-7.475-4.62-7.475-2.891 0-4.619 2.952-4.619 7.463 0 4.595 1.692 7.51 4.62 7.51 2.927 0 4.619-2.915 4.619-7.498z" fill="#000"/></g><defs><clipPath id="prefix__clip0_70_871"><path fill="#fff" d="M0 0h38v38H0z"/></clipPath></defs></svg>