<svg width="38" height="38" fill="none" xmlns="http://www.w3.org/2000/svg"><g clip-path="url(#prefix__clip0_70_779)"><path d="M8.233 0h21.534A8.216 8.216 0 0138 8.233v21.534A8.218 8.218 0 0129.767 38H8.233A8.216 8.216 0 010 29.767V8.233A8.217 8.217 0 018.233 0z" fill="url(#prefix__paint0_linear_70_779)"/><path fill-rule="evenodd" clip-rule="evenodd" d="M11.115 11.4c1.868 0 2.312-1.52 2.533-1.868a2.583 2.583 0 012.217-1.299h6.333a2.51 2.51 0 012.217 1.33c.19.349.602 1.837 2.502 1.837h4.148a1.906 1.906 0 011.9 1.9v13.617a1.906 1.906 0 01-1.9 1.9H6.998a1.906 1.906 0 01-1.9-1.9V13.3a1.905 1.905 0 011.9-1.9h4.117zM19 25.65a5.858 5.858 0 10-5.858-5.858A5.865 5.865 0 0019 25.65zm0-.95a4.908 4.908 0 114.908-4.908A4.892 4.892 0 0119 24.7zM8.233 9.5h2.217a.299.299 0 01.317.317v.95h-2.85v-.95a.3.3 0 01.316-.317z" fill="#2E2E2F"/><path d="M25.967 14.947a.697.697 0 100-1.394.697.697 0 000 1.394z" fill="#FC0"/></g><defs><linearGradient id="prefix__paint0_linear_70_779" x1="19" y1="38" x2="19" y2="0" gradientUnits="userSpaceOnUse"><stop stop-color="#8E8E93"/><stop offset="1" stop-color="#E5E5EA"/></linearGradient><clipPath id="prefix__clip0_70_779"><path fill="#fff" d="M0 0h38v38H0z"/></clipPath></defs></svg>