<svg width="39" height="38" fill="none" xmlns="http://www.w3.org/2000/svg"><g clip-path="url(#prefix__clip0_70_913)"><path fill-rule="evenodd" clip-rule="evenodd" d="M30.1 38H8.566a8.216 8.216 0 01-8.233-8.233V8.233A8.217 8.217 0 018.566 0H30.1a8.217 8.217 0 018.233 8.233v21.534A8.216 8.216 0 0130.1 38z" fill="#D8D6CC"/><path fill-rule="evenodd" clip-rule="evenodd" d="M38.333 29.41v.355a8.206 8.206 0 01-3.826 6.963V29.41h3.826z" fill="#4CD964"/><path d="M38.333 19.91h-3.827v9.5h3.827v-9.5z" fill="#FF9500"/><path d="M38.333 10.41h-3.827v9.5h3.827v-9.5z" fill="#5AC8FA"/><path d="M38.333 10.41h-3.827v3.166h3.827V10.41z" fill="url(#prefix__paint0_linear_70_913)"/><path d="M38.334 19.91h-3.828v3.167h3.828V19.91z" fill="url(#prefix__paint1_linear_70_913)"/><path fill-rule="evenodd" clip-rule="evenodd" d="M34.506 29.41v2.534h3.529c.196-.71.296-1.442.298-2.177v-.357h-3.827z" fill="url(#prefix__paint2_linear_70_913)"/><path fill-rule="evenodd" clip-rule="evenodd" d="M38.333 8.233a8.207 8.207 0 00-3.827-6.953v9.13h3.827V8.233z" fill="#C4C2BA"/><path d="M18.125 31.666A11.881 11.881 0 106.256 19.785a11.925 11.925 0 0011.869 11.88zm0-7.909c-4.045 0-7.06 1.877-8.018 3.488a10.955 10.955 0 1116.036.012c-.957-1.622-3.96-3.5-8.018-3.5zm0-2.095c2.325 0 4.106-1.974 4.106-4.554 0-2.422-1.817-4.457-4.106-4.457-2.277 0-4.106 2.035-4.094 4.457 0 2.58 1.78 4.542 4.094 4.554z" fill="#A9A29A"/><path fill-rule="evenodd" clip-rule="evenodd" d="M34.507 36.72a8.23 8.23 0 001.9-1.656V2.936a8.228 8.228 0 00-1.9-1.655V36.72z" fill="url(#prefix__paint3_linear_70_913)"/></g><defs><linearGradient id="prefix__paint0_linear_70_913" x1="36.42" y1="10.389" x2="36.42" y2="13.378" gradientUnits="userSpaceOnUse"><stop stop-opacity=".3"/><stop offset="1" stop-color="#fff" stop-opacity="0"/></linearGradient><linearGradient id="prefix__paint1_linear_70_913" x1="36.42" y1="19.836" x2="36.42" y2="23.063" gradientUnits="userSpaceOnUse"><stop stop-opacity=".2"/><stop offset="1" stop-color="#fff" stop-opacity="0"/></linearGradient><linearGradient id="prefix__paint2_linear_70_913" x1="36.42" y1="29.41" x2="36.42" y2="31.812" gradientUnits="userSpaceOnUse"><stop stop-opacity=".2"/><stop offset="1" stop-color="#fff" stop-opacity="0"/></linearGradient><linearGradient id="prefix__paint3_linear_70_913" x1="34.507" y1="19" x2="36.407" y2="19" gradientUnits="userSpaceOnUse"><stop stop-opacity=".2"/><stop offset="1" stop-color="#fff" stop-opacity="0"/></linearGradient><clipPath id="prefix__clip0_70_913"><path fill="#fff" transform="translate(.333)" d="M0 0h38v38H0z"/></clipPath></defs></svg>