<svg width="38" height="38" fill="none" xmlns="http://www.w3.org/2000/svg"><path fill-rule="evenodd" clip-rule="evenodd" d="M28.945 0C34.437 0 38 3.563 38 9.055v19.89C38 34.437 34.437 38 28.945 38H9.055C3.563 38 0 34.437 0 28.945V9.055C0 3.563 3.563 0 9.055 0h19.89z" fill="#fff"/><path opacity=".8" fill-rule="evenodd" clip-rule="evenodd" d="M23.244 7.355a5.352 5.352 0 117.569 7.569l-3.422 3.421a5.352 5.352 0 11-7.569-7.569l3.422-3.421z" fill="url(#prefix__paint0_linear_70_785)"/><path opacity=".8" fill-rule="evenodd" clip-rule="evenodd" d="M25.568 13.66a5.352 5.352 0 100 10.705h4.839a5.352 5.352 0 100-10.705h-4.839z" fill="url(#prefix__paint1_linear_70_785)"/><path opacity=".8" fill-rule="evenodd" clip-rule="evenodd" d="M31.669 13.783a5.39 5.39 0 01-.898 1.2l-3.338 3.364a5.325 5.325 0 01-7.148.379c.148-2.84 2.483-5.108 5.342-5.108h4.72c.457 0 .9.057 1.322.165z" fill="url(#prefix__paint2_linear_70_785)"/><path opacity=".8" fill-rule="evenodd" clip-rule="evenodd" d="M23.26 30.776a5.352 5.352 0 007.568-7.57l-3.421-3.42a5.352 5.352 0 00-7.57 7.568l3.422 3.422z" fill="url(#prefix__paint3_linear_70_785)"/><path opacity=".8" fill-rule="evenodd" clip-rule="evenodd" d="M20.292 19.411c.202 2.793 2.511 4.996 5.335 4.996h4.72c.443 0 .872-.054 1.283-.156a5.394 5.394 0 00-.843-1.103l-3.338-3.364a5.325 5.325 0 00-7.157-.373z" fill="url(#prefix__paint4_linear_70_785)"/><path opacity=".8" fill-rule="evenodd" clip-rule="evenodd" d="M26.56 19.06a5.33 5.33 0 01-5.803.01 5.329 5.329 0 015.802-.01z" fill="#0D5309"/><path opacity=".8" d="M24.364 25.424a5.352 5.352 0 00-10.705 0v4.838a5.352 5.352 0 1010.705 0v-4.838z" fill="url(#prefix__paint5_linear_70_785)"/><path opacity=".8" fill-rule="evenodd" clip-rule="evenodd" d="M24.198 31.558a5.362 5.362 0 01-.98-.781l-3.338-3.364a5.423 5.423 0 01-.29-7.31c2.684.29 4.774 2.577 4.774 5.361v4.758c0 .461-.058.909-.166 1.336z" fill="url(#prefix__paint6_linear_70_785)"/><path opacity=".8" fill-rule="evenodd" clip-rule="evenodd" d="M20.421 20.26a5.38 5.38 0 003.8 3.959 5.38 5.38 0 00-3.8-3.959z" fill="#0F4525"/><path opacity=".8" fill-rule="evenodd" clip-rule="evenodd" d="M14.802 30.785a5.352 5.352 0 11-7.569-7.57l3.421-3.42a5.352 5.352 0 017.57 7.569l-3.422 3.42z" fill="url(#prefix__paint7_linear_70_785)"/><path opacity=".8" fill-rule="evenodd" clip-rule="evenodd" d="M18.461 20.1c-2.692.278-4.801 2.574-4.801 5.364v4.758c0 .472.06.93.172 1.365.36-.22.7-.487 1.012-.8l3.338-3.365a5.423 5.423 0 00.28-7.322z" fill="url(#prefix__paint8_linear_70_785)"/><path opacity=".8" fill-rule="evenodd" clip-rule="evenodd" d="M19.033 26.306a5.437 5.437 0 01-.005-5.402 5.437 5.437 0 01.005 5.402z" fill="#242161"/><path opacity=".8" fill-rule="evenodd" clip-rule="evenodd" d="M12.517 13.697a5.352 5.352 0 110 10.705H7.678a5.352 5.352 0 110-10.705h4.839z" fill="url(#prefix__paint9_linear_70_785)"/><path opacity=".8" fill-rule="evenodd" clip-rule="evenodd" d="M6.42 24.279a5.4 5.4 0 01.855-1.122l3.338-3.364a5.325 5.325 0 017.18-.352c-.198 2.796-2.509 5.003-5.335 5.003h-4.72c-.455 0-.897-.057-1.318-.165z" fill="url(#prefix__paint10_linear_70_785)"/><path opacity=".8" fill-rule="evenodd" clip-rule="evenodd" d="M17.677 20.241a5.39 5.39 0 00-3.887 4.035 5.38 5.38 0 003.887-4.035z" fill="#501232"/><path opacity=".8" fill-rule="evenodd" clip-rule="evenodd" d="M14.763 7.35a5.352 5.352 0 10-7.569 7.57l3.421 3.421a5.352 5.352 0 007.57-7.569l-3.422-3.421z" fill="url(#prefix__paint11_linear_70_785)"/><path opacity=".8" fill-rule="evenodd" clip-rule="evenodd" d="M17.794 18.662c-.198-2.793-2.511-5.007-5.337-5.007h-4.72c-.473 0-.932.062-1.37.178.232.41.522.796.869 1.145l3.338 3.365a5.325 5.325 0 007.22.319z" fill="url(#prefix__paint12_linear_70_785)"/><path opacity=".8" fill-rule="evenodd" clip-rule="evenodd" d="M11.485 19.08a5.329 5.329 0 015.781-.025 5.33 5.33 0 01-5.78.025z" fill="#7F0D07"/><path opacity=".8" d="M24.402 7.829a5.352 5.352 0 10-10.705 0v4.838a5.352 5.352 0 1010.705 0V7.83z" fill="url(#prefix__paint13_linear_70_785)"/><path opacity=".8" fill-rule="evenodd" clip-rule="evenodd" d="M24.238 6.538c-.37.223-.718.495-1.036.815l-3.338 3.365a5.423 5.423 0 00-.316 7.278c2.717-.253 4.854-2.56 4.854-5.369V7.869c0-.46-.057-.905-.164-1.33z" fill="url(#prefix__paint14_linear_70_785)"/><path opacity=".8" fill-rule="evenodd" clip-rule="evenodd" d="M20.403 17.845a5.39 5.39 0 013.873-4.053 5.39 5.39 0 01-3.873 4.053z" fill="#598000"/><path fill-rule="evenodd" clip-rule="evenodd" d="M13.85 6.584c.34.213.66.468.955.765l3.338 3.364a5.423 5.423 0 01.32 7.275c-2.68-.295-4.766-2.58-4.766-5.36V7.868c0-.443.053-.873.154-1.285z" fill="url(#prefix__paint15_linear_70_785)"/><path opacity=".8" fill-rule="evenodd" clip-rule="evenodd" d="M19.005 11.847a5.438 5.438 0 00-.003 5.362 5.438 5.438 0 00.003-5.362z" fill="#A54F00"/><path opacity=".8" fill-rule="evenodd" clip-rule="evenodd" d="M17.672 17.84a5.39 5.39 0 00-3.84-4.005 5.38 5.38 0 003.84 4.004z" fill="#AA1500"/><defs><linearGradient id="prefix__paint0_linear_70_785" x1="27.028" y1="3.57" x2="16.038" y2="14.561" gradientUnits="userSpaceOnUse"><stop stop-color="#FBE41F"/><stop offset="1" stop-color="#C4DA30"/></linearGradient><linearGradient id="prefix__paint1_linear_70_785" x1="20.216" y1="13.66" x2="35.759" y2="13.66" gradientUnits="userSpaceOnUse"><stop stop-color="#73CC81"/><stop offset="1" stop-color="#C7DB44"/></linearGradient><linearGradient id="prefix__paint2_linear_70_785" x1="26.287" y1="11.751" x2="20.676" y2="19.22" gradientUnits="userSpaceOnUse"><stop stop-color="#A4BC0F"/><stop offset="1" stop-color="#5BAA22"/></linearGradient><linearGradient id="prefix__paint3_linear_70_785" x1="27.044" y1="34.56" x2="16.053" y2="23.57" gradientUnits="userSpaceOnUse"><stop stop-color="#6AC284"/><stop offset="1" stop-color="#6ABBE7"/></linearGradient><linearGradient id="prefix__paint4_linear_70_785" x1="35.69" y1="21.307" x2="29.371" y2="13.033" gradientUnits="userSpaceOnUse"><stop stop-color="#4BA03A"/><stop offset="1" stop-color="#2E8F6D"/></linearGradient><linearGradient id="prefix__paint5_linear_70_785" x1="13.659" y1="20.072" x2="13.659" y2="35.614" gradientUnits="userSpaceOnUse"><stop stop-color="#928EC4"/><stop offset="1" stop-color="#68B6E3"/></linearGradient><linearGradient id="prefix__paint6_linear_70_785" x1="16.877" y1="24.325" x2="25.248" y2="30.324" gradientUnits="userSpaceOnUse"><stop stop-color="#3E6AAD"/><stop offset="1" stop-color="#34808E"/></linearGradient><linearGradient id="prefix__paint7_linear_70_785" x1="11.018" y1="34.569" x2="22.008" y2="23.579" gradientUnits="userSpaceOnUse"><stop stop-color="#958DC2"/><stop offset="1" stop-color="#CD8CBD"/></linearGradient><linearGradient id="prefix__paint8_linear_70_785" x1="15.297" y1="15.683" x2="6.755" y2="21.572" gradientUnits="userSpaceOnUse"><stop stop-color="#735095"/><stop offset="1" stop-color="#5260A6"/></linearGradient><linearGradient id="prefix__paint9_linear_70_785" x1="17.869" y1="13.697" x2="2.326" y2="13.697" gradientUnits="userSpaceOnUse"><stop stop-color="#F56270"/><stop offset="1" stop-color="#CE8BBC"/></linearGradient><linearGradient id="prefix__paint10_linear_70_785" x1="11.675" y1="16.671" x2="7.517" y2="24.206" gradientUnits="userSpaceOnUse"><stop stop-color="#BF3653"/><stop offset="1" stop-color="#8D487C"/></linearGradient><linearGradient id="prefix__paint11_linear_70_785" x1="10.979" y1="3.566" x2="21.969" y2="14.556" gradientUnits="userSpaceOnUse"><stop stop-color="#F15F6B"/><stop offset="1" stop-color="#F79948"/></linearGradient><linearGradient id="prefix__paint12_linear_70_785" x1="22.607" y1="15.801" x2="16.795" y2="6.869" gradientUnits="userSpaceOnUse"><stop stop-color="#DF1F07"/><stop offset="1" stop-color="#C51B1A"/></linearGradient><linearGradient id="prefix__paint13_linear_70_785" x1="13.697" y1="2.477" x2="13.697" y2="18.02" gradientUnits="userSpaceOnUse"><stop stop-color="#FF8600"/><stop offset="1" stop-color="#FFE308"/></linearGradient><linearGradient id="prefix__paint14_linear_70_785" x1="21.349" y1="1.537" x2="12.371" y2="7.016" gradientUnits="userSpaceOnUse"><stop stop-color="#EB9C09"/><stop offset="1" stop-color="#CDBF05"/></linearGradient><linearGradient id="prefix__paint15_linear_70_785" x1="10.691" y1="11.018" x2="19.191" y2="16.781" gradientUnits="userSpaceOnUse"><stop stop-color="#ED4103"/><stop offset="1" stop-color="#F77402"/></linearGradient></defs></svg>