<svg width="38" height="38" fill="none" xmlns="http://www.w3.org/2000/svg"><g clip-path="url(#prefix__clip0_70_850)"><path d="M29.133 0H8.867A8.867 8.867 0 000 8.867v20.266A8.867 8.867 0 008.867 38h20.266A8.867 8.867 0 0038 29.133V8.867A8.867 8.867 0 0029.133 0z" fill="#fff"/><path d="M15.202 23.726c0-.571.463-1.034 1.034-1.034h6.208a1.034 1.034 0 110 2.068h-6.208a1.034 1.034 0 01-1.034-1.034zM15.202 27.866c0-.571.463-1.034 1.034-1.034h6.208a1.034 1.034 0 010 2.068h-6.208a1.034 1.034 0 01-1.034-1.034z" fill="#5180FF"/><path d="M28.806 14.301a2 2 0 01.892 1.665V26.9a2 2 0 01-2 2h-.14a2 2 0 01-2-2v-4.276a2 2 0 00-2-2H15.14a2 2 0 00-2 2V26.9a2 2 0 01-2 2H11a2 2 0 01-2-2V15.965a2 2 0 01.89-1.664l8.343-5.562a2 2 0 012.218 0l8.355 5.562z" fill="#5180FF"/></g><defs><clipPath id="prefix__clip0_70_850"><path fill="#fff" d="M0 0h38v38H0z"/></clipPath></defs></svg>