<svg width="38" height="38" fill="none" xmlns="http://www.w3.org/2000/svg"><g clip-path="url(#prefix__clip0_70_843)"><path d="M29.133 0H8.867A8.867 8.867 0 000 8.867v20.266A8.867 8.867 0 008.867 38h20.266A8.867 8.867 0 0038 29.133V8.867A8.867 8.867 0 0029.133 0z" fill="url(#prefix__paint0_linear_70_843)"/><g clip-path="url(#prefix__clip1_70_843)"><path d="M16.5 11.5a2.5 2.5 0 115 0 2.5 2.5 0 01-5 0zM24 19v3c0 1.474-.81 2.75-2 3.444V30a1 1 0 01-2 0v-4h-2v4a1 1 0 01-2 0v-4.556c-1.19-.694-2-1.97-2-3.444v-3c0-2.206 1.794-4 4-4h2c2.206 0 4 1.794 4 4zm-12-7a2.5 2.5 0 100-5 2.5 2.5 0 000 5zm14 0a2.5 2.5 0 100-5 2.5 2.5 0 000 5zm1 1h-2c-.744 0-1.432.217-2.029.572a5.368 5.368 0 01-.09.167A6.003 6.003 0 0126.001 19v3c0 .69-.128 1.365-.357 2h1.357v4a1 1 0 002 0v-4.556c1.19-.694 2-1.97 2-3.444v-3c0-2.206-1.795-4-4.001-4zm-15 9v-3a6.003 6.003 0 013.12-5.261 3.343 3.343 0 01-.09-.167A3.956 3.956 0 0013.001 13h-2A4.004 4.004 0 007 17v3c0 1.474.81 2.75 2 3.444V28a1 1 0 002 0v-4h1.357A5.896 5.896 0 0112 22z" fill="#fff"/></g></g><defs><clipPath id="prefix__clip0_70_843"><path fill="#fff" d="M0 0h38v38H0z"/></clipPath><clipPath id="prefix__clip1_70_843"><path fill="#fff" transform="translate(7 7)" d="M0 0h24v24H0z"/></clipPath><linearGradient id="prefix__paint0_linear_70_843" x1="19" y1="0" x2="19" y2="38" gradientUnits="userSpaceOnUse"><stop stop-color="#5A8CFF"/><stop offset="1" stop-color="#416AFF"/></linearGradient></defs></svg>