<svg width="38" height="38" fill="none" xmlns="http://www.w3.org/2000/svg"><g clip-path="url(#prefix__clip0_70_894)"><path d="M29.133 0H8.867A8.867 8.867 0 000 8.867v20.266A8.867 8.867 0 008.867 38h20.266A8.867 8.867 0 0038 29.133V8.867A8.867 8.867 0 0029.133 0z" fill="url(#prefix__paint0_linear_70_894)"/><g clip-path="url(#prefix__clip1_70_894)" fill="#fff"><path d="M27.25 19.086h-16.5a2.668 2.668 0 00-2.664 2.664v5.5a2.667 2.667 0 002.664 2.664h16.5a2.668 2.668 0 002.664-2.664v-5.5a2.668 2.668 0 00-2.664-2.664zm-9.201 3.094l-.688 4.812a.602.602 0 01-1.106.234l-1.208-1.935-1.209 1.933a.6.6 0 01-1.106-.233l-.687-4.813a.6.6 0 111.19-.17l.455 3.182.846-1.353a.602.602 0 011.02 0l.847 1.353.454-3.182a.602.602 0 111.191.17v.002zm2.412 4.726a.601.601 0 11-1.203 0v-4.812a.602.602 0 111.203 0v4.812zm5.5 0a.602.602 0 01-1.108.325l-1.986-3.09v2.765a.602.602 0 11-1.203 0v-4.812a.602.602 0 011.108-.325l1.986 3.09v-2.765a.602.602 0 111.203 0v4.812zM22.284 11.21a4.291 4.291 0 01-2.713-2.713.6.6 0 00-1.142 0 4.291 4.291 0 01-2.713 2.714.601.601 0 000 1.14 4.293 4.293 0 012.713 2.714.601.601 0 001.142 0 4.291 4.291 0 012.713-2.713.602.602 0 000-1.141zM13.383 12.279a.601.601 0 00-1.141 0 3.204 3.204 0 01-2.026 2.025.602.602 0 000 1.142 3.202 3.202 0 012.026 2.025.601.601 0 001.141 0 3.202 3.202 0 012.026-2.025.602.602 0 000-1.142 3.202 3.202 0 01-2.026-2.025zM27.784 14.304a3.202 3.202 0 01-2.026-2.025.601.601 0 00-1.141 0 3.204 3.204 0 01-2.026 2.025.602.602 0 000 1.142 3.202 3.202 0 012.026 2.025.601.601 0 001.141 0 3.202 3.202 0 012.026-2.025.602.602 0 000-1.142z"/></g></g><defs><clipPath id="prefix__clip0_70_894"><path fill="#fff" d="M0 0h38v38H0z"/></clipPath><clipPath id="prefix__clip1_70_894"><path fill="#fff" transform="translate(8 8)" d="M0 0h22v22H0z"/></clipPath><linearGradient id="prefix__paint0_linear_70_894" x1="19" y1="0" x2="19" y2="38" gradientUnits="userSpaceOnUse"><stop stop-color="#FF9C5A"/><stop offset="1" stop-color="#FFC941"/></linearGradient></defs></svg>