<svg width="38" height="38" fill="none" xmlns="http://www.w3.org/2000/svg"><g clip-path="url(#prefix__clip0_70_924)"><path d="M29.767 0H8.233A8.233 8.233 0 000 8.233v21.534A8.233 8.233 0 008.233 38h21.534A8.233 8.233 0 0038 29.767V8.233A8.233 8.233 0 0029.767 0z" fill="url(#prefix__paint0_linear_70_924)"/><path d="M19.162 6.812c-7.695 0-13.934 5.104-13.934 11.4 0 4.002 2.534 7.52 6.334 9.553a.634.634 0 01.316.78 5.701 5.701 0 01-1.757 2.311.316.316 0 00.256.557 11.35 11.35 0 004.604-1.9 1.242 1.242 0 01.973-.225c1.058.208 2.135.314 3.214.317 7.695 0 13.933-5.105 13.933-11.4S26.857 6.812 19.161 6.812z" fill="#FEFEFE"/></g><defs><linearGradient id="prefix__paint0_linear_70_924" x1="19" y1="0" x2="19" y2="38" gradientUnits="userSpaceOnUse"><stop stop-color="#5CF777"/><stop offset="1" stop-color="#0DBC29"/></linearGradient><clipPath id="prefix__clip0_70_924"><path fill="#fff" d="M0 0h38v38H0z"/></clipPath></defs></svg>