<svg width="38" height="38" fill="none" xmlns="http://www.w3.org/2000/svg"><g clip-path="url(#prefix__clip0_70_813)"><path fill="#F8C702" d="M19.223 28.277H38V38H19.223z"/><path fill="url(#prefix__paint0_linear_70_813)" d="M0 0h38v28.277H0z"/><path fill="#EC87C9" d="M0 13.953h9.797V38H0z"/><g clip-path="url(#prefix__clip1_70_813)"><circle cx="39.076" cy="-.111" r="12.135" stroke="#fff" stroke-width="6.383"/><path d="M39.076 9.835c5.494 0 9.947-4.453 9.947-9.946 0-5.494-4.453-9.947-9.947-9.947-5.493 0-9.947 4.453-9.947 9.947 0 5.493 4.454 9.946 9.947 9.946zM53.35-.11c0 7.882-6.39 14.272-14.273 14.272-7.882 0-14.272-6.39-14.272-14.272 0-7.883 6.39-14.273 14.272-14.273 7.883 0 14.273 6.39 14.273 14.273z" fill="#D2D1D6" stroke="#CAC9CE" stroke-width=".594"/></g><path d="M20.47 16.952v.202l.169.11L40.464 30.12l-5.182 7.99-39.964-25.918L.5 4.203l6.605 4.283a.965.965 0 001.49-.81V-.148H20.47v17.1z" fill="#F0EFF5" stroke="#fff" stroke-width=".742"/><path d="M10.354-.557h8.386v19h-8.386v-19z" fill="url(#prefix__paint1_linear_70_813)" stroke="#fff" stroke-width="1.113"/><path d="M9.797 19h9.5v19h-9.5V19z" fill="#EAE9EE"/><g filter="url(#prefix__filter0_d_70_813)"><circle cx="14.547" cy="23.527" r="8.832" fill="url(#prefix__paint2_linear_70_813)" stroke="#fff" stroke-width="1.484"/><path d="M15.454 17.777c-.308-.843-1.506-.843-1.814 0l-3.412 9.713c-.23.654.566 1.182 1.08.716l3.239-2.947 3.24 2.947c.512.466 1.309-.062 1.079-.716l-3.412-9.713z" fill="#fff"/></g></g><defs><linearGradient id="prefix__paint0_linear_70_813" x1="19" y1="0" x2="19" y2="28.277" gradientUnits="userSpaceOnUse"><stop stop-color="#7FED7D"/><stop offset="1" stop-color="#2ED058"/></linearGradient><linearGradient id="prefix__paint1_linear_70_813" x1="14.547" y1="-1.113" x2="14.547" y2="19" gradientUnits="userSpaceOnUse"><stop stop-color="#318DF8"/><stop offset="1" stop-color="#4081FA"/></linearGradient><linearGradient id="prefix__paint2_linear_70_813" x1="14.547" y1="13.953" x2="14.547" y2="33.102" gradientUnits="userSpaceOnUse"><stop stop-color="#4C87FB"/><stop offset="1" stop-color="#2D76F6"/></linearGradient><clipPath id="prefix__clip0_70_813"><rect width="38" height="38" rx="8.313" fill="#fff"/></clipPath><clipPath id="prefix__clip1_70_813"><path fill="#fff" d="M23.75 0H38v15.215H23.75z"/></clipPath><filter id="prefix__filter0_d_70_813" x=".52" y="10.613" width="28.055" height="28.055" filterUnits="userSpaceOnUse" color-interpolation-filters="sRGB"><feFlood flood-opacity="0" result="BackgroundImageFix"/><feColorMatrix in="SourceAlpha" values="0 0 0 0 0 0 0 0 0 0 0 0 0 0 0 0 0 0 127 0" result="hardAlpha"/><feOffset dy="1.113"/><feGaussianBlur stdDeviation="2.227"/><feComposite in2="hardAlpha" operator="out"/><feColorMatrix values="0 0 0 0 0 0 0 0 0 0 0 0 0 0 0 0 0 0 0.25 0"/><feBlend in2="BackgroundImageFix" result="effect1_dropShadow_70_813"/><feBlend in="SourceGraphic" in2="effect1_dropShadow_70_813" result="shape"/></filter></defs></svg>