<svg width="38" height="38" fill="none" xmlns="http://www.w3.org/2000/svg"><g clip-path="url(#prefix__clip0_70_831)"><path d="M29.133 0H8.867A8.867 8.867 0 000 8.867v20.266A8.867 8.867 0 008.867 38h20.266A8.867 8.867 0 0038 29.133V8.867A8.867 8.867 0 0029.133 0z" fill="url(#prefix__paint0_linear_70_831)"/><path fill-rule="evenodd" clip-rule="evenodd" d="M5.383 10.133h4.434v20.9H6.65a1.267 1.267 0 01-1.267-1.266V10.133z" fill="#fff"/><g filter="url(#prefix__filter0_d_70_831)"><path d="M7.917 7.6h24.066v21.85a1.584 1.584 0 01-1.583 1.583H7.917V7.6zM6.65 31.033c.633 0 1.267-.633 1.267-1.266v1.266H6.65z" fill="#000"/></g><path d="M7.917 7.6h24.066v21.85a1.584 1.584 0 01-1.583 1.583H7.917V7.6zM6.65 31.033c.633 0 1.267-.633 1.267-1.266v1.266H6.65z" fill="#fff"/><path d="M13.928 13h-.755l-.585-2.29-.58 2.29h-.755l-.955-3.335h.795l.585 2.41.635-2.41h.555l.63 2.41.58-2.41h.8L13.928 13zm3.645 0h-2.36V9.665h2.36v.625h-1.65v.705h1.615v.625h-1.615v.755h1.65V13zm3.665 0h-.81l-.205-.565h-1.43l-.21.565h-.81l1.29-3.335h.89L21.238 13zm-1.21-1.19l-.52-1.435-.52 1.435h1.04zM23.966 13h-2.54v-.575L23 10.29h-1.575v-.625h2.505v.57l-1.575 2.14h1.61V13zm2.899 0h-2.36V9.665h2.36v.625h-1.65v.705h1.615v.625h-1.615v.755h1.65V13zm2.675 0h-2.12V9.665h.71v2.71h1.41V13z" fill="#FE5053"/><path fill-rule="evenodd" clip-rule="evenodd" d="M11.083 22.167h20.9v1.266h-20.9a.633.633 0 010-1.266zm0 2.533h20.9v1.267h-20.9a.633.633 0 010-1.267zm0 2.533h20.9V28.5h-20.9a.634.634 0 010-1.267z" fill="#C8C7CC"/></g><defs><linearGradient id="prefix__paint0_linear_70_831" x1="19" y1="0" x2="19" y2="38" gradientUnits="userSpaceOnUse"><stop stop-color="#FF6F71"/><stop offset="1" stop-color="#FE5053"/></linearGradient><clipPath id="prefix__clip0_70_831"><path fill="#fff" d="M0 0h38v38H0z"/></clipPath><filter id="prefix__filter0_d_70_831" x="4.117" y="6.333" width="27.867" height="25.967" filterUnits="userSpaceOnUse" color-interpolation-filters="sRGB"><feFlood flood-opacity="0" result="BackgroundImageFix"/><feColorMatrix in="SourceAlpha" values="0 0 0 0 0 0 0 0 0 0 0 0 0 0 0 0 0 0 127 0" result="hardAlpha"/><feOffset dx="-1.267"/><feGaussianBlur stdDeviation=".633"/><feColorMatrix values="0 0 0 0 0 0 0 0 0 0 0 0 0 0 0 0 0 0 0.2 0"/><feBlend in2="BackgroundImageFix" result="effect1_dropShadow_70_831"/><feBlend in="SourceGraphic" in2="effect1_dropShadow_70_831" result="shape"/></filter></defs></svg>