<svg width="38" height="38" fill="none" xmlns="http://www.w3.org/2000/svg"><g clip-path="url(#prefix__clip0_70_878)"><path d="M29.133 0H8.867A8.867 8.867 0 000 8.867v20.266A8.867 8.867 0 008.867 38h20.266A8.867 8.867 0 0038 29.133V8.867A8.867 8.867 0 0029.133 0z" fill="url(#prefix__paint0_linear_70_878)"/><g clip-path="url(#prefix__clip1_70_878)" fill="#fff"><path d="M16.637 22.17v-2.216l-.654-.653h-.807v3.523h.807l.654-.654zM21.294 23.924l-.842-.842h-.808v2.148h2.45c.402 0 .73-.327.73-.73v-.387H21.75a.645.645 0 01-.456-.189zM17.926 20.332h2.148v1.461h-2.148v-1.461zM16.706 18.2l.842.843h.808v-2.148h-2.45a.731.731 0 00-.73.73v.387h1.074c.171 0 .335.068.456.189zM16.706 23.924a.645.645 0 01-.456.19h-1.074v.386c0 .403.328.73.73.73h2.45v-2.148h-.808l-.842.842z"/><path d="M27.31 12.3l-3.667-3.702c-.377-.38-.9-.598-1.435-.598H12.125c-1.114 0-2.02.906-2.02 2.02v17.96c0 1.114.906 2.02 2.02 2.02h13.75c1.114 0 2.02-.906 2.02-2.02V13.723c0-.536-.208-1.04-.585-1.421zm-3.197 12.2c0 1.114-.906 2.02-2.02 2.02h-6.187a2.022 2.022 0 01-2.02-2.02v-6.875c0-1.114.907-2.02 2.02-2.02h6.188c1.113 0 2.02.906 2.02 2.02V24.5z"/><path d="M22.094 16.895h-2.45v2.148h.808l.842-.842a.645.645 0 01.456-.19h1.074v-.386a.731.731 0 00-.73-.73zM21.363 19.954v2.216l.654.654h.807v-3.523h-.807l-.654.654z"/></g></g><defs><clipPath id="prefix__clip0_70_878"><path fill="#fff" d="M0 0h38v38H0z"/></clipPath><clipPath id="prefix__clip1_70_878"><path fill="#fff" transform="translate(8 8)" d="M0 0h22v22H0z"/></clipPath><linearGradient id="prefix__paint0_linear_70_878" x1="19" y1="0" x2="19" y2="38" gradientUnits="userSpaceOnUse"><stop stop-color="#424242"/><stop offset="1" stop-color="#232323"/></linearGradient></defs></svg>