<svg width="38" height="38" fill="none" xmlns="http://www.w3.org/2000/svg"><path fill-rule="evenodd" clip-rule="evenodd" d="M28.945 0C34.437 0 38 3.563 38 9.055v19.89C38 34.437 34.437 38 28.945 38H9.055C3.563 38 0 34.437 0 28.945V9.055C0 3.563 3.563 0 9.055 0h19.89z" fill="url(#prefix__paint0_linear_70_905)"/><path fill-rule="evenodd" clip-rule="evenodd" d="M8.606 16.498C7.19 13.93 6.65 11.862 6.65 10.464c0-1.397.343-1.798.692-2.122.348-.324 1.92-1.293 2.187-1.473.268-.181 1.29-.532 1.93.39.641.921 1.848 2.772 2.68 4.002 1.305 1.741.265 2.505-.07 2.964-.619.843-.975 1.05-.975 2.086 0 1.035 2.894 3.977 3.586 4.701.686.72 3.57 3.247 4.462 3.382.9.136 2.104-.816 2.36-1.058 1.303-1 2.038-.242 2.638.088.6.33 3.311 2.019 4.151 2.588.791.57.742 1.45.742 1.45s-1.631 2.588-1.829 2.898c-.247.363-.84.673-2.174.673s-2.76-.243-6.148-2.107c-2.772-1.524-5.415-3.912-6.799-5.31-1.433-1.397-3.86-4.186-5.477-7.118z" fill="#fff"/><defs><linearGradient id="prefix__paint0_linear_70_905" x1="0" y1="0" x2="0" y2="38" gradientUnits="userSpaceOnUse"><stop stop-color="#64FA7E"/><stop offset="1" stop-color="#0CBA29"/></linearGradient></defs></svg>