<svg width="38" height="38" fill="none" xmlns="http://www.w3.org/2000/svg"><g clip-path="url(#prefix__clip0_70_860)"><path d="M29.133 0H8.867A8.867 8.867 0 000 8.867v20.266A8.867 8.867 0 008.867 38h20.266A8.867 8.867 0 0038 29.133V8.867A8.867 8.867 0 0029.133 0z" fill="url(#prefix__paint0_linear_70_860)"/><g clip-path="url(#prefix__clip1_70_860)" fill="#fff"><path d="M24.273 17.829a.585.585 0 11-1.172 0v-.586H12.516v2.343h12.929v-2.343h-1.172v.586zM13.688 25.446a1.172 1.172 0 100-2.344 1.172 1.172 0 000 2.344z"/><path d="M27.203 13.727H12.516v-1.261l13.611-2.301a.585.585 0 10-.192-1.156l-14.1 2.383a.586.586 0 00-.49.578v1.757h-.587a1.76 1.76 0 00-1.757 1.758v11.718c0 .97.788 1.797 1.758 1.797h16.444c.97 0 1.797-.828 1.797-1.797V15.485c0-.97-.828-1.758-1.797-1.758zm-13.515 12.89a2.346 2.346 0 01-2.344-2.343 2.346 2.346 0 012.344-2.344 2.346 2.346 0 012.344 2.344 2.346 2.346 0 01-2.344 2.343zm5.898-.586a.585.585 0 11-1.172 0v-3.515a.586.586 0 111.172 0v3.515zm2.344 0a.585.585 0 11-1.172 0v-3.515a.586.586 0 111.172 0v3.515zm2.343 0a.586.586 0 11-1.171 0v-3.515a.585.585 0 111.171 0v3.515zm2.344 0a.586.586 0 11-1.172 0v-3.515a.585.585 0 111.172 0v3.515zm0-5.859a.586.586 0 01-.586.586h-14.1a.586.586 0 01-.587-.586v-3.515c0-.324.262-.586.586-.586h14.101c.324 0 .586.262.586.586v3.515z"/></g></g><defs><clipPath id="prefix__clip0_70_860"><path fill="#fff" d="M0 0h38v38H0z"/></clipPath><clipPath id="prefix__clip1_70_860"><path fill="#fff" transform="translate(9 9)" d="M0 0h20v20H0z"/></clipPath><linearGradient id="prefix__paint0_linear_70_860" x1="19" y1="0" x2="19" y2="38" gradientUnits="userSpaceOnUse"><stop stop-color="#A45AFF"/><stop offset="1" stop-color="#A641FF"/></linearGradient></defs></svg>