<svg width="39" height="38" fill="none" xmlns="http://www.w3.org/2000/svg"><g clip-path="url(#prefix__clip0_70_908)"><path d="M8.9 0h21.533a8.217 8.217 0 018.234 8.233v21.534A8.216 8.216 0 0130.433 38H8.9a8.216 8.216 0 01-8.233-8.233V8.233A8.217 8.217 0 018.9 0z" fill="url(#prefix__paint0_linear_70_908)"/><path d="M19.667 35.467c9.094 0 16.466-7.373 16.466-16.467 0-9.094-7.372-16.467-16.466-16.467C10.572 2.533 3.2 9.906 3.2 19c0 9.094 7.372 16.467 16.467 16.467z" fill="#2E2E2F"/><path fill-rule="evenodd" clip-rule="evenodd" d="M19.35 10.133h.538l.254-1.266h.221l.095 1.298c.16.005.32.027.475.063l.38-1.235.222.032-.063 1.298c.162.028.32.07.475.127l.506-1.172.19.064-.221 1.266c.158.064.316.095.475.159l.633-1.109.19.095-.348 1.235c.158.064.285.159.443.222l.76-1.045.19.095-.507 1.203c.127.095.285.19.412.285l.887-.95.158.127-.633 1.14c.126.095.253.222.38.317l.981-.824.159.159-.76 1.045.348.348 1.077-.697.126.159-.855.95.285.38 1.14-.57.127.19-.982.855c.095.126.159.285.254.411l1.203-.443.095.19-1.077.728.19.475 1.235-.285.064.19-1.109.57c.064.159.095.317.159.475l1.266-.158.064.222-1.204.443c.032.158.064.317.095.507h1.299l.031.221-1.235.317c0 .158.032.348.032.507l1.267.158v.222l-1.267.158c.005.159-.005.318-.032.475l1.235.285-.031.222-1.267.031-.095.475 1.203.444-.031.19-1.267-.127c-.032.158-.095.317-.127.475l1.14.57-.063.19-1.267-.285-.19.475 1.077.728-.095.19-1.235-.411c-.063.126-.158.285-.222.411l.982.824-.127.19-1.14-.57a3.587 3.587 0 01-.316.411l.886.919-.126.158-1.077-.697c-.1.132-.217.249-.348.349l.76 1.045-.159.158-1.013-.823c-.119.114-.246.22-.38.316l.633 1.109-.158.126-.887-.918c-.126.095-.285.19-.411.285l.506 1.203-.19.095-.791-1.013a2.89 2.89 0 01-.444.222l.38 1.235-.19.095-.665-1.109c-.153.067-.312.12-.475.159l.222 1.266-.19.064-.538-1.172c-.159.032-.317.095-.475.127l.063 1.298-.222.032-.38-1.235c-.158.031-.316.031-.506.063l-.064 1.298h-.221l-.254-1.266h-.538l-.222 1.266h-.126l-.095-1.298a3.152 3.152 0 01-.507-.063l-.38 1.235-.222-.032.064-1.298a2.625 2.625 0 01-.475-.127l-.507 1.172-.19-.064.222-1.266c-.159-.064-.317-.095-.475-.159l-.665 1.109-.19-.095.348-1.235c-.158-.064-.285-.159-.443-.222l-.76 1.045-.19-.095.506-1.203c-.126-.095-.285-.19-.411-.285l-.887.95-.158-.127.633-1.14c-.127-.095-.253-.222-.38-.317l-.982.824-.158-.159.76-1.045a3.625 3.625 0 00-.348-.348l-1.077.728-.127-.158.887-.95a4.657 4.657 0 01-.317-.412l-1.14.57-.126-.19.981-.823c-.095-.127-.158-.285-.253-.443l-1.203.443-.095-.19 1.076-.728-.19-.475-1.235.285-.063-.19 1.14-.602c-.063-.158-.095-.317-.158-.475l-1.267.158-.063-.221 1.203-.444a15.183 15.183 0 01-.095-.506H9.723l-.031-.222 1.235-.317c0-.158-.032-.316-.032-.506l-1.267-.159v-.221l1.267-.159c-.005-.17.005-.339.032-.506l-1.235-.285.031-.222 1.267-.032.095-.475-1.203-.443.063-.19 1.267.127c.031-.159.095-.317.126-.475l-1.14-.57.064-.19 1.235.285.19-.475-1.077-.697.095-.19 1.203.412c.095-.159.159-.285.254-.444l-.982-.823.127-.19 1.14.57c.095-.127.19-.285.285-.412l-.887-.95.127-.158 1.076.697c.108-.135.224-.262.349-.38l-.76-1.045.158-.159.982.824c.118-.115.245-.221.38-.317l-.634-1.108.159-.127.886.918c.127-.095.285-.19.412-.285l-.507-1.171.19-.095.792 1.013c.141-.087.29-.16.443-.222l-.348-1.235.19-.095.665 1.109c.153-.067.312-.12.475-.159l-.222-1.266.19-.064.539 1.172c.158-.032.316-.095.475-.127l-.064-1.298.222-.032.38 1.235c.158-.031.317-.031.507-.063l.063-1.298h.222l.158 1.361zm.317 1.71a7.124 7.124 0 107.125 7.125 7.136 7.136 0 00-7.125-7.125z" fill="url(#prefix__paint1_linear_70_908)"/><path fill-rule="evenodd" clip-rule="evenodd" d="M19.192 5.7h.76l.348-1.9h.317l.126 1.932c.254.031.507.063.729.095l.57-1.869.316.064-.095 1.963c.254.063.475.095.697.158l.792-1.805.316.095-.316 1.964c.226.07.449.155.665.253l1.013-1.742.285.127-.538 1.932c.221.095.443.221.633.316l1.203-1.615.285.159-.791 1.868c.207.126.408.264.601.412l1.394-1.489.253.19-1.013 1.774c.19.158.38.316.538.475l1.552-1.299.221.222-1.203 1.647c.158.158.317.348.475.506l1.71-1.108.19.253-1.393 1.52c.147.183.285.373.411.57l1.837-.918.19.253-1.552 1.362c.128.194.244.394.349.602l1.963-.697.158.285-1.71 1.172c.095.221.19.411.285.633l2.027-.475.095.285-1.837.95.19.665 2.059-.222.063.317-1.932.728c.032.222.095.444.127.665h2.09l.032.317-2.027.507c.027.241.038.485.032.728l2.058.253v.317l-2.058.253c0 .222-.032.444-.032.665l2.027.475-.032.317-2.09.032c-.027.234-.07.467-.127.696l1.932.729-.063.316-2.059-.221-.19.665 1.837.918-.095.285-1.995-.443-.285.665 1.71 1.14-.127.285-1.931-.665a3.735 3.735 0 01-.349.601l1.552 1.33-.158.254-1.837-.887c-.127.19-.285.38-.412.57l1.394 1.488-.19.254-1.71-1.109c-.159.19-.317.349-.475.539l1.203 1.615-.222.221-1.551-1.266c-.19.158-.349.316-.539.475l.982 1.741-.253.19-1.394-1.425c-.19.127-.38.285-.601.412l.791 1.805-.285.158-1.203-1.551c-.222.126-.443.221-.665.348l.57 1.9-.285.127-1.013-1.679a5.704 5.704 0 01-.665.254l.348 1.931-.317.095-.791-1.773c-.222.063-.475.127-.729.19l.095 1.9-.316.063-.57-1.805-.76.095-.127 1.9-.317.032-.348-1.868h-.823l-.349 1.868-.316-.032-.127-1.9c-.253-.031-.507-.031-.76-.063l-.538 1.805-.317-.063.095-1.869c-.253-.063-.507-.095-.76-.158l-.76 1.71-.317-.095.285-1.837a6.644 6.644 0 01-.728-.253l-.918 1.583-.285-.126.506-1.774a4.767 4.767 0 01-.696-.348l-1.109 1.457-.285-.159.697-1.678c-.222-.127-.443-.285-.665-.412l-1.235 1.33-.253-.19.886-1.583a8.91 8.91 0 01-.633-.507l-1.393 1.14-.222-.221L10.04 28.5l-.57-.57-1.488.982-.222-.254 1.203-1.33c-.158-.221-.316-.411-.475-.633l-1.583.792-.19-.254 1.33-1.171a8.003 8.003 0 01-.412-.697l-1.678.602-.127-.285 1.457-.982a7.753 7.753 0 01-.317-.76l-1.71.38-.095-.285 1.552-.792c-.095-.253-.158-.506-.253-.791l-1.742.19-.063-.317 1.646-.602c-.063-.253-.095-.538-.158-.791H4.372l-.032-.317 1.71-.443c-.032-.254-.032-.539-.063-.792l-1.742-.222v-.316l1.742-.222c0-.285.031-.538.031-.823l-1.71-.412.032-.317 1.773-.031c.032-.254.095-.539.127-.792l-1.647-.602.064-.316 1.741.19c.064-.254.159-.507.222-.792l-1.583-.792.126-.285 1.71.38c.095-.253.222-.506.317-.728l-1.488-.982.126-.285 1.679.602a7.99 7.99 0 01.411-.697l-1.361-1.14.158-.253 1.615.792c.158-.222.317-.444.475-.634L7.57 9.373l.19-.253 1.52.982c.19-.19.348-.38.538-.57L8.742 8.075l.221-.222 1.425 1.14c.19-.158.412-.348.602-.506l-.918-1.584.253-.19 1.267 1.33c.221-.158.443-.285.665-.443l-.729-1.71.285-.158 1.14 1.456c.222-.126.475-.221.697-.348l-.538-1.773.285-.127.95 1.615c.237-.099.48-.183.728-.253l-.317-1.869.317-.095.76 1.71c.24-.068.482-.12.728-.158l-.095-1.9.317-.063.57 1.805.76-.095.127-1.9.316-.032.634 1.995zm-7.727 21.787c.855.823 2.248.475 2.85-.57l3.42-6.017a3.792 3.792 0 00-.063-3.8l-3.515-5.953c-.602-1.014-1.995-1.362-2.85-.507a11.668 11.668 0 00.158 16.847zm7.283-11.052a3.935 3.935 0 003.357 1.9h6.903c1.204 0 2.185-1.013 1.9-2.185a11.734 11.734 0 00-14.756-8.392c-1.14.349-1.552 1.71-.95 2.755l3.546 5.922zm3.389 3.198a3.881 3.881 0 00-3.325 1.9l-3.42 6.017a1.828 1.828 0 001.013 2.723 11.739 11.739 0 0014.535-8.486c.285-1.14-.697-2.185-1.9-2.185l-6.903.031zm-2.629-1.266a.633.633 0 100 1.266.633.633 0 000-1.266z" fill="url(#prefix__paint2_linear_70_908)"/></g><defs><linearGradient id="prefix__paint0_linear_70_908" x1="19.667" y1="38" x2="19.667" y2="0" gradientUnits="userSpaceOnUse"><stop stop-color="#8E8E93"/><stop offset="1" stop-color="#E5E5EA"/></linearGradient><linearGradient id="prefix__paint1_linear_70_908" x1="19.686" y1="8.855" x2="19.686" y2="29.122" gradientUnits="userSpaceOnUse"><stop stop-color="#B4B4B9"/><stop offset="1" stop-color="#B4B4B9"/></linearGradient><linearGradient id="prefix__paint2_linear_70_908" x1="19.498" y1="3.786" x2="19.498" y2="34.158" gradientUnits="userSpaceOnUse"><stop stop-color="#DCDCE1"/><stop offset="1" stop-color="#98989D"/></linearGradient><clipPath id="prefix__clip0_70_908"><path fill="#fff" transform="translate(.667)" d="M0 0h38v38H0z"/></clipPath></defs></svg>