<svg width="38" height="38" viewBox="0 0 38 38" fill="none" xmlns="http://www.w3.org/2000/svg">
<g clip-path="url(#clip0_166_259)">
<path d="M29.1333 0H8.86667C3.96974 0 0 3.96974 0 8.86667V29.1333C0 34.0303 3.96974 38 8.86667 38H29.1333C34.0303 38 38 34.0303 38 29.1333V8.86667C38 3.96974 34.0303 0 29.1333 0Z" fill="#252525"/>
<path d="M7.54094 19.7738C7.54094 20.3352 7.70783 20.789 8.04161 21.1353C8.37539 21.4817 8.79632 21.6548 9.30441 21.6548C9.80878 21.6548 10.226 21.4798 10.5561 21.1299C10.8899 20.7799 11.0567 20.3279 11.0567 19.7738V15H12.5977V22.8414H11.0734V22.2837C10.506 22.7612 9.85143 23 9.1097 23C8.21221 23 7.46862 22.712 6.87895 22.136C6.29298 21.5564 6 20.8018 6 19.8722V15H7.54094V19.7738Z" fill="white"/>
<path d="M20.002 22.8414H18.5223V22.3055C17.9697 22.7685 17.3355 23 16.6197 23C16.1895 23 15.7797 22.9198 15.3903 22.7594C15.0009 22.5954 14.6653 22.3766 14.3834 22.1032C14.1053 21.8298 13.8827 21.5072 13.7158 21.1353C13.5527 20.7599 13.4711 20.3661 13.4711 19.9542C13.4711 19.5423 13.5527 19.1486 13.7158 18.7731C13.8827 18.3976 14.1053 18.0731 14.3834 17.7997C14.6653 17.5263 15.0009 17.3094 15.3903 17.149C15.7797 16.9886 16.1895 16.9084 16.6197 16.9084C17.3281 16.9084 17.9585 17.1344 18.5111 17.5865V15H20.002V22.8414ZM18.5334 19.9542C18.5334 19.4621 18.3591 19.0465 18.0105 18.7075C17.6618 18.3648 17.2391 18.1934 16.7421 18.1934C16.2489 18.1934 15.8279 18.3648 15.4793 18.7075C15.1307 19.0501 14.9564 19.4657 14.9564 19.9542C14.9564 20.4391 15.1307 20.8546 15.4793 21.201C15.8316 21.5473 16.2526 21.7204 16.7421 21.7204C17.2354 21.7204 17.6563 21.5491 18.0049 21.2064C18.3572 20.8601 18.5334 20.4427 18.5334 19.9542Z" fill="white"/>
<path d="M20.8142 19.9433C20.8142 19.411 20.9459 18.9134 21.2092 18.4504C21.4725 17.9875 21.8396 17.6175 22.3106 17.3404C22.7816 17.0597 23.3008 16.9193 23.8683 16.9193C24.7509 16.9193 25.4741 17.2092 26.0378 17.7888C26.6053 18.3684 26.889 19.1085 26.889 20.0089V20.4354H22.344C22.4441 20.8182 22.6444 21.1299 22.9448 21.3705C23.2452 21.6111 23.5957 21.7314 23.9962 21.7314C24.3189 21.7314 24.6044 21.673 24.8529 21.5564C25.1014 21.4361 25.3313 21.2411 25.5427 20.9713L26.583 21.7314C26.2826 22.1324 25.9136 22.4422 25.476 22.661C25.0383 22.8797 24.5488 22.9891 24.0073 22.9891C23.414 22.9891 22.8725 22.8596 22.383 22.6008C21.8971 22.342 21.5133 21.9793 21.2314 21.5126C20.9533 21.046 20.8142 20.5229 20.8142 19.9433ZM23.8349 18.1716C23.4863 18.1716 23.1803 18.2736 22.917 18.4778C22.6537 18.6819 22.4701 18.9608 22.3663 19.3144H25.387C25.2794 18.9608 25.0847 18.6819 24.8028 18.4778C24.521 18.2736 24.1983 18.1716 23.8349 18.1716Z" fill="white"/>
<path d="M31 18.3411H30.466C30.1025 18.3411 29.8021 18.465 29.5648 18.7129C29.3274 18.9608 29.2087 19.2998 29.2087 19.73V22.8414H27.7178V17.0506H29.1976V17.6794C29.5128 17.2237 29.9801 16.9959 30.5995 16.9959H31V18.3411Z" fill="white"/>
</g>
<defs>
<clipPath id="clip0_166_259">
<rect width="38" height="38" fill="white"/>
</clipPath>
</defs>
</svg>
