<svg width="24" height="25" viewBox="0 0 24 25" fill="none" xmlns="http://www.w3.org/2000/svg">
<g clip-path="url(#clip0_166_299)">
<rect x="12.4688" y="18.3421" width="11.5312" height="6.30659" fill="#F8C702"/>
<rect width="24" height="18.3421" fill="url(#paint0_linear_166_299)"/>
<rect y="9.05069" width="5.70608" height="15.598" fill="#EC87C9"/>
<g clip-path="url(#clip1_166_299)">
<circle cx="24.6981" cy="-0.0722189" r="7.8712" stroke="white" stroke-width="4.1402"/>
<path d="M24.6984 6.37969C28.2617 6.37969 31.1503 3.49108 31.1503 -0.0722103C31.1503 -3.6355 28.2617 -6.52412 24.6984 -6.52412C21.1351 -6.52412 18.2465 -3.6355 18.2465 -0.0722103C18.2465 3.49108 21.1351 6.37969 24.6984 6.37969ZM33.9562 -0.0722103C33.9562 5.04073 29.8114 9.18559 24.6984 9.18559C19.5855 9.18559 15.4406 5.04073 15.4406 -0.0722103C15.4406 -5.18515 19.5855 -9.33002 24.6984 -9.33002C29.8114 -9.33002 33.9562 -5.18515 33.9562 -0.0722103Z" fill="#D2D1D6" stroke="#CAC9CE" stroke-width="0.385135"/>
</g>
<path d="M12.9218 10.9958V11.1247L13.0291 11.1962L25.5515 19.537L22.2806 24.7168L-2.95229 7.90987L0.31862 2.73008L4.46171 5.48968C4.87764 5.76671 5.4345 5.46854 5.4345 4.9688V-0.0962961H12.9218V10.9958Z" fill="#F0EFF5" stroke="white" stroke-width="0.481419"/>
<path d="M6.71556 -0.361073H9.43557H12.1556V11.9633H6.71556V-0.361073Z" fill="url(#paint1_linear_166_299)" stroke="white" stroke-width="0.722128"/>
<path d="M6.35449 12.3243H9.43557H12.5167V24.6486H6.35449V12.3243Z" fill="#EAE9EE"/>
<g filter="url(#filter0_d_166_299)">
<circle cx="9.43589" cy="15.261" r="5.72889" fill="url(#paint2_linear_166_299)" stroke="white" stroke-width="0.962838"/>
<path d="M10.0236 11.5309C9.82405 10.9841 9.04671 10.9841 8.84712 11.5309L6.63382 17.8313C6.48471 18.2558 7.00129 18.5982 7.33413 18.2955L9.43538 16.3844L11.5366 18.2955C11.8694 18.5982 12.386 18.2558 12.2369 17.8313L10.0236 11.5309Z" fill="white"/>
</g>
</g>
<defs>
<filter id="filter0_d_166_299" x="0.337072" y="6.8843" width="18.1979" height="18.1977" filterUnits="userSpaceOnUse" color-interpolation-filters="sRGB">
<feFlood flood-opacity="0" result="BackgroundImageFix"/>
<feColorMatrix in="SourceAlpha" type="matrix" values="0 0 0 0 0 0 0 0 0 0 0 0 0 0 0 0 0 0 127 0" result="hardAlpha"/>
<feOffset dy="0.722128"/>
<feGaussianBlur stdDeviation="1.44426"/>
<feComposite in2="hardAlpha" operator="out"/>
<feColorMatrix type="matrix" values="0 0 0 0 0 0 0 0 0 0 0 0 0 0 0 0 0 0 0.25 0"/>
<feBlend mode="normal" in2="BackgroundImageFix" result="effect1_dropShadow_166_299"/>
<feBlend mode="normal" in="SourceGraphic" in2="effect1_dropShadow_166_299" result="shape"/>
</filter>
<linearGradient id="paint0_linear_166_299" x1="12" y1="0" x2="12" y2="18.3421" gradientUnits="userSpaceOnUse">
<stop stop-color="#7FED7D"/>
<stop offset="1" stop-color="#2ED058"/>
</linearGradient>
<linearGradient id="paint1_linear_166_299" x1="9.43557" y1="-0.722137" x2="9.43557" y2="12.3243" gradientUnits="userSpaceOnUse">
<stop stop-color="#318DF8"/>
<stop offset="1" stop-color="#4081FA"/>
</linearGradient>
<linearGradient id="paint2_linear_166_299" x1="9.43589" y1="9.05069" x2="9.43589" y2="21.4713" gradientUnits="userSpaceOnUse">
<stop stop-color="#4C87FB"/>
<stop offset="1" stop-color="#2D76F6"/>
</linearGradient>
<clipPath id="clip0_166_299">
<rect width="24" height="24.6486" rx="5.39189" fill="white"/>
</clipPath>
<clipPath id="clip1_166_299">
<rect x="14.7568" width="9.24324" height="9.86909" fill="white"/>
</clipPath>
</defs>
</svg>
